<?xml version="1.0" standalone="no"?>
<!DOCTYPE svg PUBLIC "-//W3C//DTD SVG 20010904//EN"
 "http://www.w3.org/TR/2001/REC-SVG-20010904/DTD/svg10.dtd">
<svg version="1.0" xmlns="http://www.w3.org/2000/svg"
 width="300.000000pt" height="300.000000pt" viewBox="0 0 300.000000 300.000000"
 preserveAspectRatio="xMidYMid meet">
<metadata>
Created by potrace 1.10, written by Peter Selinger 2001-2011
</metadata>
<g transform="translate(0.000000,300.000000) scale(0.100000,-0.100000)"
fill="#000000" stroke="none">
<path d="M2449 2673 c37 -36 39 -42 46 -113 3 -41 5 -309 3 -595 l-3 -520 -28
-57 c-32 -66 -94 -123 -149 -140 l-38 -11 0 -168 0 -167 38 4 c20 2 71 6 112
8 142 10 262 67 370 175 89 89 132 169 160 300 18 79 20 133 20 704 l0 617
-285 0 -286 0 40 -37z m482 -19 c7 -8 9 -210 7 -631 l-3 -618 -27 -73 c-37
-103 -84 -176 -150 -236 -109 -100 -267 -154 -420 -147 -16 1 -18 14 -18 126
l0 126 33 17 c44 24 129 110 149 153 10 19 21 60 25 90 9 59 8 1033 -1 1140
l-6 67 200 -1 c148 0 203 -3 211 -13z"/>
<path d="M30 2464 l0 -239 712 3 713 2 111 111 112 112 -121 118 -120 119
-688 0 c-378 0 -694 3 -703 6 -14 6 -16 -19 -16 -232z m1492 89 l103 -103 -92
-92 -92 -92 -668 -1 c-367 -1 -676 1 -686 3 -16 4 -17 19 -15 191 l3 186 29 5
c17 3 319 5 673 5 l643 0 102 -102z"/>
<path d="M1489 2679 c14 -9 72 -64 128 -121 l103 -103 -115 -115 -115 -115 0
-381 c0 -433 6 -492 66 -615 50 -103 149 -199 264 -256 94 -47 152 -60 281
-65 l86 -3 7 159 c4 87 4 162 -1 166 -4 4 -26 12 -48 18 -54 16 -111 64 -139
121 l-24 46 -3 637 -4 638 -256 2 c-241 3 -255 2 -230 -13z m436 -40 c6 -6 11
-216 13 -612 l3 -602 26 -58 c28 -62 78 -114 142 -146 21 -11 41 -26 44 -33 7
-22 -4 -222 -14 -232 -10 -11 -102 -9 -173 5 -74 13 -205 81 -263 136 -60 57
-116 140 -137 203 -31 95 -35 159 -33 537 l2 383 96 97 c53 54 101 107 107
118 15 28 -4 57 -82 135 -36 35 -66 68 -66 72 0 17 317 15 335 -3z"/>
<path d="M639 2097 c8 -10 12 -260 13 -901 l3 -887 313 0 312 0 0 898 0 898
-326 3 c-275 2 -325 0 -315 -11z m585 -33 c14 -6 16 -91 16 -860 0 -676 -3
-854 -12 -855 -7 -1 -125 -3 -261 -4 -205 -2 -251 0 -263 12 -12 12 -14 137
-14 852 0 638 3 840 12 849 9 9 80 12 259 12 136 0 254 -3 263 -6z"/>
</g>
</svg>
